<?xml version="1.0" encoding="UTF-8"?>
<svg id="C-12" xmlns="http://www.w3.org/2000/svg" width="802" height="802" viewBox="0 0 802 802">
  <circle cx="401" cy="401" r="400" fill="#fff"/>
  <circle cx="401" cy="401" r="400.5" fill="none" stroke="#000"/>
  <circle cx="401" cy="401" r="392" fill="#039"/>
  <g fill="#fff">
    <path d="M176.44,591.93c90.45,102.1,238.38,130.33,360.07,68.72l28.5,41.54c29.91-53.14,45.83-113.01,46.26-173.98l-161.17,6.53,29.06,42.36c-79.13,33.6-170.88,12.88-227.88-51.47l-74.85,66.31Z"/>
    <path d="M412.95,143.29l86.24,136.32,22.15-46.35c68.67,51.72,96.59,141.54,69.37,223.09l94.85,31.67c43.2-129.38-6.32-271.61-120.53-346.19l21.72-45.46c-60.97.67-120.78,16.82-173.81,46.93Z"/>
    <path d="M51.23,380.45c31.07,52.47,74.95,96.19,127.54,127.06l74.93-142.84-51.21,3.99c10.46-85.33,74.28-154.43,158.51-171.62l-20-97.98c-133.64,27.28-232.06,141.28-239.55,277.47l-50.23,3.92Z"/>
  </g>
</svg>